<svg width="64" height="129" viewBox="0 0 64 129" fill="none" xmlns="http://www.w3.org/2000/svg">
<path d="M57.3179 72.2501C66.312 72.2501 61.2403 28.7498 39.623 28.7498C36.6046 28.7498 35.4381 29.2334 32.7249 29.25C30.0118 29.2666 28.7498 28.7498 26.1234 28.7498C1.5839 28.7498 -1.91765 72.25 6.71372 72.2501C15.3451 72.2503 10.7841 56.25 17.2841 45.25C13.7842 72.25 17.2841 89.25 19.2249 101.75C20.3793 109.185 22.3179 121.25 28.2235 121.25C31.7235 121.25 31.7249 121.25 31.7249 101.25C31.7249 92.25 31.7249 79.25 31.7249 79.25H33.5C33.5 79.25 33.7249 92.6728 33.7249 101.25C33.7249 121.25 33.7249 121.25 37.7249 121.25C43.2235 121.25 44.219 109.25 45.2249 101.75C46.9014 89.25 49.9014 72.2501 47.7841 45.25C53.8179 56.25 48.3239 72.2501 57.3179 72.2501Z" fill="#FFE600"/>
<path d="M41.8179 17.75C41.8179 23.2728 37.3408 27.75 31.8179 27.75C26.2951 27.75 21.8179 23.2728 21.8179 17.75C21.8179 12.2272 26.2951 7.75 31.8179 7.75C37.3408 7.75 41.8179 12.2272 41.8179 17.75Z" fill="#FFE600"/>
</svg>
