<svg width="64" height="129" viewBox="0 0 64 129" fill="none" xmlns="http://www.w3.org/2000/svg">
<path d="M55.319 72.7499C61.9942 72.7499 56.319 29.2499 38.5672 29.25C36.1911 29.25 34.4363 29.7402 32.5033 29.7499C30.5703 29.7597 28.6296 29.2499 26.0033 29.2499C7.93712 29.25 2.2263 72.7499 8.31902 72.7499C15.9055 72.7499 11.4055 61.2501 20.319 44.7499C17.9055 66.7501 18.8758 83.75 20.319 101.75C20.9204 109.25 21.4055 121.75 27.5033 121.75C31.5033 121.75 31.5033 121.75 31.5033 101.75C31.5033 73.7499 31.5033 73.7499 31.5033 73.7499H33.6674C33.6674 73.7499 33.6674 73.7499 33.65 101.75C33.6376 121.75 33.65 121.75 37.0672 121.75C44.319 121.75 43.819 109.75 44.319 101.75C45.444 83.75 46.5091 67.25 44.5091 44.7499C53.509 61.2499 48.6439 72.7499 55.319 72.7499Z" fill="#4AE203"/>
<path d="M42.1674 17.2501C42.1674 22.7729 37.6902 27.2501 32.1674 27.2501C26.6445 27.2501 22.1674 22.7729 22.1674 17.2501C22.1674 11.7272 26.6445 7.25006 32.1674 7.25006C37.6902 7.25006 42.1674 11.7272 42.1674 17.2501Z" fill="#4AE203"/>
</svg>
