<svg width="64" height="129" viewBox="0 0 64 129" fill="none" xmlns="http://www.w3.org/2000/svg">
<g clip-path="url(#clip0)">
<path d="M58.0483 72.2502C71.1335 72.2503 62.3685 28.2501 41.093 28.2501C37.4491 28.2501 36.3776 28.5001 32.7039 28.5C29.0301 28.4999 28.1272 28.2501 25.1351 28.2501C-0.430058 28.2501 -5.82846 72.2504 5.24945 72.2502C12.6679 72.2501 9.17711 57.7501 15.7921 45.2501C5.24945 72.2502 14.164 90.7501 17.1561 101.25C19.2177 108.485 20.9925 121.25 27.4455 121.25C31.435 121.25 31.435 121.25 31.435 101.25C31.435 81.2499 31.435 84.2499 31.435 84.2499H33.5761C33.5761 84.2499 33.5761 84.2499 33.5761 101.25C33.5761 121.25 33.5761 121.25 36.9843 121.25C44.4307 121.25 45.9268 109.25 47.4567 101.25C49.501 90.5602 58.0483 72.2502 47.4567 45.2501C54.5575 59.2501 50.6705 72.2501 58.0483 72.2502Z" fill="#FF1F00"/>
<path d="M42.8346 17.7501C42.8346 23.2729 38.3692 27.7501 32.8609 27.7501C27.3526 27.7501 22.8872 23.2729 22.8872 17.7501C22.8872 12.2272 27.3526 7.75006 32.8609 7.75006C38.3692 7.75006 42.8346 12.2272 42.8346 17.7501Z" fill="#FF1F00"/>
</g>
<defs>
<clipPath id="clip0">
<rect width="64" height="128" fill="white" transform="translate(0 0.5)"/>
</clipPath>
</defs>
</svg>
