<svg width="64" height="129" viewBox="0 0 64 129" fill="none" xmlns="http://www.w3.org/2000/svg">
<path d="M53.0988 73.2501C58.4868 73.2501 51.3027 29.7498 38.0988 29.7499C35.7227 29.7499 34.0318 30.2403 32.0988 30.2501C30.1658 30.2598 28.9574 29.7499 26.331 29.7499C14.2607 29.7499 5.23794 73.2501 10.7606 73.2501C18.5988 73.2501 12.6316 61.2501 22.1316 44.2499C21.5025 68.2501 22.1316 79.2501 22.1316 102.25C22.1316 109.774 22.1065 122.25 27.0988 122.25C31.831 122.25 31.831 122.25 31.831 102.25C31.831 72.2499 31.831 72.2499 31.831 72.2499L34.0988 72.2501C34.0988 72.2501 34.0988 72.2501 33.9777 102.25C33.897 122.25 33.9727 122.25 38.0988 122.25C43.2606 122.25 43.2606 109.75 43.2606 102.25C43.2606 79.2501 43.2606 67.7501 42.2606 43.7501C52 60.5 46.0988 73.2501 53.0988 73.2501Z" fill="#0075FF"/>
<path d="M42.0988 16.7501C42.0988 22.2729 37.6217 26.7501 32.0988 26.7501C26.576 26.7501 22.0988 22.2729 22.0988 16.7501C22.0988 11.2272 26.576 6.75006 32.0988 6.75006C37.6217 6.75006 42.0988 11.2272 42.0988 16.7501Z" fill="#0075FF"/>
</svg>
